# xmcd CD database file
#
# Track frame offsets:
#	150
#	22818
#	45702
#	70705
#	95698
#	125529
#	148385
#	167453
#
# Disc length: 2556 seconds
#
# Revision: 0
# Processed by: cddbd v1.5.2PL0 Copyright (c) Steve Scherf et al.
# Submitted via: CDex 1.78
#
DISCID=6909fa08
DTITLE=Haytham Safia - Two Elements
DYEAR=2016
DGENRE=Arabic
TTITLE0=NAFAS
TTITLE1=RAWNAK
TTITLE2=SHATHA
TTITLE3=ASALA
TTITLE4=ITLALA
TTITLE5=ZENA
TTITLE6=ALIEF
TTITLE7=IBQ
EXTD=YEAR: 2016
EXTT0=
EXTT1=
EXTT2=
EXTT3=
EXTT4=
EXTT5=
EXTT6=
EXTT7=
PLAYORDER=
